<?xml version="1.0" encoding="UTF-8" standalone="no"?>
<!DOCTYPE svg PUBLIC "-//W3C//DTD SVG 1.1//EN" "http://www.w3.org/Graphics/SVG/1.1/DTD/svg11.dtd">
<svg width="100%" height="100%" viewBox="0 0 639 167" version="1.1" xmlns="http://www.w3.org/2000/svg" xmlns:xlink="http://www.w3.org/1999/xlink" xml:space="preserve" xmlns:serif="http://www.serif.com/" style="fill-rule:evenodd;clip-rule:evenodd;stroke-linejoin:round;stroke-miterlimit:2;">
    <g transform="matrix(5.55556,0,0,5.55556,0,0)">
        <g transform="matrix(1,0,0,1,0,0.160073)">
            <g transform="matrix(1.00958,0,0,1.00958,0,4.79538e-16)">
                <path d="M107.773,9.795L107.773,5.602L109.898,5.602C110.068,5.602 110.254,5.652 110.455,5.75C110.655,5.845 110.826,5.992 110.966,6.193C111.11,6.39 111.182,6.64 111.182,6.943C111.182,7.25 111.108,7.511 110.96,7.727C110.813,7.939 110.633,8.1 110.42,8.21C110.212,8.32 110.015,8.375 109.83,8.375L108.295,8.375L108.295,7.693L109.545,7.693C109.67,7.693 109.805,7.631 109.949,7.506C110.097,7.381 110.17,7.193 110.17,6.943C110.17,6.686 110.097,6.511 109.949,6.42C109.805,6.33 109.678,6.284 109.568,6.284L108.693,6.284L108.693,9.795L107.773,9.795ZM110.307,7.818L111.352,9.795L110.341,9.795L109.318,7.818L110.307,7.818ZM109.364,12.296C108.735,12.296 108.146,12.178 107.597,11.943C107.047,11.708 106.564,11.383 106.148,10.966C105.731,10.549 105.405,10.066 105.17,9.517C104.936,8.968 104.818,8.379 104.818,7.75C104.818,7.121 104.936,6.532 105.17,5.983C105.405,5.434 105.731,4.951 106.148,4.534C106.564,4.117 107.047,3.792 107.597,3.557C108.146,3.322 108.735,3.205 109.364,3.205C109.992,3.205 110.581,3.322 111.131,3.557C111.68,3.792 112.163,4.117 112.58,4.534C112.996,4.951 113.322,5.434 113.557,5.983C113.792,6.532 113.909,7.121 113.909,7.75C113.909,8.379 113.792,8.968 113.557,9.517C113.322,10.066 112.996,10.549 112.58,10.966C112.163,11.383 111.68,11.708 111.131,11.943C110.581,12.178 109.992,12.296 109.364,12.296ZM109.364,11.205C110,11.205 110.58,11.049 111.102,10.739C111.625,10.428 112.042,10.011 112.352,9.489C112.663,8.966 112.818,8.386 112.818,7.75C112.818,7.114 112.663,6.534 112.352,6.011C112.042,5.489 111.625,5.072 111.102,4.761C110.58,4.451 110,4.295 109.364,4.295C108.727,4.295 108.148,4.451 107.625,4.761C107.102,5.072 106.686,5.489 106.375,6.011C106.064,6.534 105.909,7.114 105.909,7.75C105.909,8.386 106.064,8.966 106.375,9.489C106.686,10.011 107.102,10.428 107.625,10.739C108.148,11.049 108.727,11.205 109.364,11.205Z" style="fill:white;fill-rule:nonzero;"/>
            </g>
            <g transform="matrix(1.00958,0,0,1.00958,0,4.79538e-16)">
                <path d="M28.639,9.352C29.761,11.005 29.819,13.277 28.814,16.166L24.383,28.9L16.915,28.9L21.033,17.065C21.54,15.607 21.51,14.475 20.941,13.667C20.373,12.859 19.372,12.456 17.937,12.456C16.534,12.445 15.172,12.874 14.089,13.667C12.958,14.474 12.139,15.607 11.631,17.065L7.512,28.9L0,28.9L7.846,6.344C8.485,4.507 9.77,2.899 11.511,1.758C13.252,0.616 15.359,0 17.522,0C17.528,-0 17.533,0.001 17.537,0.003C17.542,0.005 17.545,0.008 17.548,0.012C17.552,0.015 17.554,0.019 17.554,0.024C17.555,0.028 17.555,0.033 17.553,0.037L14.073,10.039C15.202,9.055 16.533,8.273 17.994,7.734C19.491,7.165 21.103,6.872 22.731,6.875C25.546,6.872 27.516,7.698 28.639,9.352Z" style="fill:white;fill-rule:nonzero;"/>
            </g>
            <g transform="matrix(1.00958,0,0,1.00958,0,4.79538e-16)">
                <path d="M34.35,12.06C35.885,10.348 37.629,9.031 39.583,8.11C41.537,7.188 43.519,6.727 45.53,6.727C47.253,6.727 48.655,7.043 49.737,7.676C50.818,8.309 51.534,9.138 51.884,10.164C52.194,9.259 52.817,8.468 53.663,7.906C54.508,7.344 55.531,7.042 56.58,7.043L60.446,7.043L52.877,29.086L45.389,29.086L46.463,25.965C45.353,27.01 44.032,27.855 42.571,28.454C41.046,29.087 39.386,29.409 37.707,29.398C35.722,29.398 34.073,28.931 32.76,27.996C31.447,27.061 30.611,25.73 30.253,24.001C29.895,22.277 30.105,20.282 30.883,18.017C31.605,15.849 32.782,13.827 34.35,12.06ZM48.976,14.075C48.274,13.101 47.179,12.614 45.691,12.613C44.204,12.613 42.778,13.093 41.413,14.055C40.047,15.017 39.075,16.34 38.498,18.025C37.92,19.71 37.98,21.047 38.677,22.035C39.373,23.022 40.466,23.515 41.955,23.515C43.445,23.515 44.876,23.028 46.249,22.054C47.62,21.081 48.594,19.749 49.172,18.059C49.75,16.369 49.687,15.041 48.983,14.075L48.976,14.075Z" style="fill:white;fill-rule:nonzero;"/>
            </g>
            <g transform="matrix(1.00958,0,0,1.00958,0,4.79538e-16)">
                <path d="M73.816,0L63.77,28.9L56.268,28.9L64.095,6.377C64.739,4.529 66.029,2.913 67.778,1.766C69.528,0.619 71.644,-0 73.816,0Z" style="fill:white;fill-rule:nonzero;"/>
            </g>
            <g transform="matrix(1.00958,0,0,1.00958,0,4.79538e-16)">
                <path d="M73.899,12.059C75.434,10.348 77.179,9.031 79.134,8.109C81.088,7.188 83.07,6.727 85.081,6.727C86.804,6.727 88.207,7.043 89.289,7.676C90.371,8.309 91.086,9.138 91.436,10.164C91.747,9.259 92.37,8.468 93.216,7.906C94.061,7.345 95.084,7.042 96.134,7.043L100.001,7.043L92.43,29.082L84.941,29.082L86.015,25.962C84.905,27.007 83.584,27.852 82.123,28.45C80.6,29.083 78.941,29.407 77.264,29.398C75.279,29.398 73.63,28.931 72.315,27.996C71.001,27.062 70.165,25.73 69.808,24.002C69.45,22.278 69.66,20.284 70.437,18.018C71.157,15.85 72.332,13.827 73.899,12.059ZM88.529,14.073C87.828,13.1 86.732,12.613 85.243,12.612C83.754,12.612 82.327,13.092 80.96,14.054C79.594,15.015 78.622,16.338 78.044,18.023C77.466,19.708 77.526,21.045 78.224,22.032C78.921,23.019 80.014,23.513 81.503,23.513C82.992,23.513 84.423,23.026 85.798,22.052C87.169,21.078 88.143,19.747 88.721,18.057C89.299,16.367 89.237,15.039 88.534,14.073L88.529,14.073Z" style="fill:white;fill-rule:nonzero;"/>
            </g>
        </g>
    </g>
</svg>
